<svg xmlns="http://www.w3.org/2000/svg" xmlns:svg="http://www.w3.org/2000/svg" xmlns:xlink="http://www.w3.org/1999/xlink" id="svg12062" width="2000" height="1200" version="1.1"><defs id="defs12064"><clipPath id="clipPath3953-0-9-1-5-0-21" clipPathUnits="userSpaceOnUse"><path style="fill:#4f4371;fill-opacity:1;stroke:none" id="path3955-1-6-8-1-2-5" d="m 1375.3258,-1364.6093 -150.0676,-234.8117 287.7767,12.3585 1.7656,213.6257 z"/></clipPath><linearGradient id="linearGradient6027-36"><stop style="stop-color:#4f4371;stop-opacity:1" id="stop6029-1" offset="0"/><stop style="stop-color:#6e5d9d;stop-opacity:1" id="stop6031-6" offset="1"/></linearGradient><clipPath id="clipPath3924-0-1-2-11" clipPathUnits="userSpaceOnUse"><path style="fill:#fff;stroke:none" id="path3926-1-2-6-1" d="m 1354.5147,-1165.4256 144.7711,218.92217 -153.5986,231.28072 446.6719,-5.2965 -28.2481,-35.31004 -293.0732,-434.31345 z"/></clipPath><linearGradient id="linearGradient10296" x1="1345.687" x2="1792.359" y1="-946.32" y2="-946.32" gradientUnits="userSpaceOnUse" xlink:href="#linearGradient6027-36"/><linearGradient id="linearGradient12599"><stop style="stop-color:#4f4371;stop-opacity:1" id="stop12601" offset="0"/><stop style="stop-color:#6e5d9d;stop-opacity:1" id="stop12603" offset="1"/></linearGradient><clipPath id="clipPath3854-8-0-29-50-32" clipPathUnits="userSpaceOnUse"><path style="fill:#fff;fill-opacity:1;stroke:none" id="path3856-8-7-4-6-02" d="m 575,-882.63744 -148,-230.99996 -136,5 7,27 130,200.99996 -140,226 145,0 143,-219 z"/></clipPath><clipPath id="clipPath3953-0-9-1-5-0-21-7" clipPathUnits="userSpaceOnUse"><path style="fill:#4f4371;fill-opacity:1;stroke:none" id="path3955-1-6-8-1-2-5-6" d="m 1375.3258,-1364.6093 -150.0676,-234.8117 287.7767,12.3585 1.7656,213.6257 z"/></clipPath><clipPath id="clipPath3854-8-0-29-50-32-1" clipPathUnits="userSpaceOnUse"><path style="fill:#fff;fill-opacity:1;stroke:none" id="path3856-8-7-4-6-02-1" d="m 575,-882.63744 -148,-230.99996 -136,5 7,27 130,200.99996 -140,226 145,0 143,-219 z"/></clipPath><linearGradient id="linearGradient6027-36-1"><stop style="stop-color:#4f4371;stop-opacity:1" id="stop6029-1-8" offset="0"/><stop style="stop-color:#6e5d9d;stop-opacity:1" id="stop6031-6-8" offset="1"/></linearGradient><clipPath id="clipPath3924-0-1-2-11-97" clipPathUnits="userSpaceOnUse"><path style="fill:#fff;stroke:none" id="path3926-1-2-6-1-1" d="m 1354.5147,-1165.4256 144.7711,218.92217 -153.5986,231.28072 446.6719,-5.2965 -28.2481,-35.31004 -293.0732,-434.31345 z"/></clipPath><linearGradient id="linearGradient12712"><stop style="stop-color:#4f4371;stop-opacity:1" id="stop12714" offset="0"/><stop style="stop-color:#6e5d9d;stop-opacity:1" id="stop12716" offset="1"/></linearGradient><clipPath id="clipPath3924-0-1-0-7-0" clipPathUnits="userSpaceOnUse"><path style="fill:#fff;stroke:none" id="path3926-1-2-4-1-49" d="m 1354.5147,-1165.4256 144.7711,218.92217 -153.5986,231.28072 446.6719,-5.2965 -28.2481,-35.31004 -293.0732,-434.31345 z"/></clipPath><clipPath id="clipPath3854-8-0-29-5-3-6" clipPathUnits="userSpaceOnUse"><path style="fill:#fff;fill-opacity:1;stroke:none" id="path3856-8-7-4-2-0-75" d="m 575,-882.63744 -148,-230.99996 -136,5 7,27 130,200.99996 -140,226 145,0 143,-219 z"/></clipPath><clipPath id="clipPath3953-0-9-1-5-7-5-03" clipPathUnits="userSpaceOnUse"><path style="fill:#4f4371;fill-opacity:1;stroke:none" id="path3955-1-6-8-1-7-6-1" d="m 1375.3258,-1364.6093 -150.0676,-234.8117 287.7767,12.3585 1.7656,213.6257 z"/></clipPath><clipPath id="clipPath3953-0-9-1-5-0-21-5" clipPathUnits="userSpaceOnUse"><path style="fill:#4f4371;fill-opacity:1;stroke:none" id="path3955-1-6-8-1-2-5-9" d="m 1375.3258,-1364.6093 -150.0676,-234.8117 287.7767,12.3585 1.7656,213.6257 z"/></clipPath><clipPath id="clipPath3854-8-0-29-50-32-2" clipPathUnits="userSpaceOnUse"><path style="fill:#fff;fill-opacity:1;stroke:none" id="path3856-8-7-4-6-02-3" d="m 575,-882.63744 -148,-230.99996 -136,5 7,27 130,200.99996 -140,226 145,0 143,-219 z"/></clipPath><linearGradient id="linearGradient6027-36-6"><stop style="stop-color:#4f4371;stop-opacity:1" id="stop6029-1-4" offset="0"/><stop style="stop-color:#6e5d9d;stop-opacity:1" id="stop6031-6-6" offset="1"/></linearGradient><clipPath id="clipPath3924-0-1-2-11-9" clipPathUnits="userSpaceOnUse"><path style="fill:#fff;stroke:none" id="path3926-1-2-6-1-4" d="m 1354.5147,-1165.4256 144.7711,218.92217 -153.5986,231.28072 446.6719,-5.2965 -28.2481,-35.31004 -293.0732,-434.31345 z"/></clipPath><linearGradient id="linearGradient12743"><stop style="stop-color:#4f4371;stop-opacity:1" id="stop12745" offset="0"/><stop style="stop-color:#6e5d9d;stop-opacity:1" id="stop12747" offset="1"/></linearGradient><clipPath id="clipPath3924-0-1-0-7-0-7" clipPathUnits="userSpaceOnUse"><path style="fill:#fff;stroke:none" id="path3926-1-2-4-1-49-22" d="m 1354.5147,-1165.4256 144.7711,218.92217 -153.5986,231.28072 446.6719,-5.2965 -28.2481,-35.31004 -293.0732,-434.31345 z"/></clipPath><clipPath id="clipPath3854-8-0-29-5-3-6-32" clipPathUnits="userSpaceOnUse"><path style="fill:#fff;fill-opacity:1;stroke:none" id="path3856-8-7-4-2-0-75-81" d="m 575,-882.63744 -148,-230.99996 -136,5 7,27 130,200.99996 -140,226 145,0 143,-219 z"/></clipPath><clipPath id="clipPath3953-0-9-1-5-7-5-03-4" clipPathUnits="userSpaceOnUse"><path style="fill:#4f4371;fill-opacity:1;stroke:none" id="path3955-1-6-8-1-7-6-1-2" d="m 1375.3258,-1364.6093 -150.0676,-234.8117 287.7767,12.3585 1.7656,213.6257 z"/></clipPath><clipPath id="clipPath3953-0-9-1-5-0-21-1" clipPathUnits="userSpaceOnUse"><path style="fill:#4f4371;fill-opacity:1;stroke:none" id="path3955-1-6-8-1-2-5-1" d="m 1375.3258,-1364.6093 -150.0676,-234.8117 287.7767,12.3585 1.7656,213.6257 z"/></clipPath><linearGradient id="linearGradient10298" x1="1345.687" x2="1792.359" y1="-946.32" y2="-946.32" gradientUnits="userSpaceOnUse" xlink:href="#linearGradient6027-36-4"/><linearGradient id="linearGradient6027-36-4"><stop style="stop-color:#4f4371;stop-opacity:1" id="stop6029-1-9" offset="0"/><stop style="stop-color:#6e5d9d;stop-opacity:1" id="stop6031-6-0" offset="1"/></linearGradient><clipPath id="clipPath3924-0-1-2-11-5" clipPathUnits="userSpaceOnUse"><path style="fill:#fff;stroke:none" id="path3926-1-2-6-1-2" d="m 1354.5147,-1165.4256 144.7711,218.92217 -153.5986,231.28072 446.6719,-5.2965 -28.2481,-35.31004 -293.0732,-434.31345 z"/></clipPath><linearGradient id="linearGradient10296-4" x1="1345.687" x2="1792.359" y1="-946.32" y2="-946.32" gradientUnits="userSpaceOnUse" xlink:href="#linearGradient6027-36-4"/><linearGradient id="linearGradient13131"><stop style="stop-color:#4f4371;stop-opacity:1" id="stop13133" offset="0"/><stop style="stop-color:#6e5d9d;stop-opacity:1" id="stop13135" offset="1"/></linearGradient><clipPath id="clipPath3854-8-0-29-50-32-28" clipPathUnits="userSpaceOnUse"><path style="fill:#fff;fill-opacity:1;stroke:none" id="path3856-8-7-4-6-02-30" d="m 575,-882.63744 -148,-230.99996 -136,5 7,27 130,200.99996 -140,226 145,0 143,-219 z"/></clipPath><linearGradient id="linearGradient13145" x1="1345.687" x2="1792.359" y1="-946.32" y2="-946.32" gradientUnits="userSpaceOnUse" xlink:href="#linearGradient6027-36-4"/><clipPath id="clipPath3953-0-9-1-5-0-21-1-9" clipPathUnits="userSpaceOnUse"><path style="fill:#4f4371;fill-opacity:1;stroke:none" id="path3955-1-6-8-1-2-5-1-6" d="m 1375.3258,-1364.6093 -150.0676,-234.8117 287.7767,12.3585 1.7656,213.6257 z"/></clipPath><clipPath id="clipPath3854-8-0-29-50-32-28-3" clipPathUnits="userSpaceOnUse"><path style="fill:#fff;fill-opacity:1;stroke:none" id="path3856-8-7-4-6-02-30-9" d="m 575,-882.63744 -148,-230.99996 -136,5 7,27 130,200.99996 -140,226 145,0 143,-219 z"/></clipPath><linearGradient id="linearGradient6027-36-4-2"><stop style="stop-color:#4f4371;stop-opacity:1" id="stop6029-1-9-6" offset="0"/><stop style="stop-color:#6e5d9d;stop-opacity:1" id="stop6031-6-0-8" offset="1"/></linearGradient><clipPath id="clipPath3924-0-1-2-11-5-1" clipPathUnits="userSpaceOnUse"><path style="fill:#fff;stroke:none" id="path3926-1-2-6-1-2-0" d="m 1354.5147,-1165.4256 144.7711,218.92217 -153.5986,231.28072 446.6719,-5.2965 -28.2481,-35.31004 -293.0732,-434.31345 z"/></clipPath><linearGradient id="linearGradient13145-0" x1="1345.687" x2="1792.359" y1="-946.32" y2="-946.32" gradientUnits="userSpaceOnUse" xlink:href="#linearGradient6027-36-4-2"/><linearGradient id="linearGradient13228"><stop style="stop-color:#4f4371;stop-opacity:1" id="stop13230" offset="0"/><stop style="stop-color:#6e5d9d;stop-opacity:1" id="stop13232" offset="1"/></linearGradient><clipPath id="clipPath3953-0-9-1-5-0-21-3" clipPathUnits="userSpaceOnUse"><path style="fill:#4f4371;fill-opacity:1;stroke:none" id="path3955-1-6-8-1-2-5-0" d="m 1375.3258,-1364.6093 -150.0676,-234.8117 287.7767,12.3585 1.7656,213.6257 z"/></clipPath><clipPath id="clipPath3854-8-0-29-50-32-3" clipPathUnits="userSpaceOnUse"><path style="fill:#fff;fill-opacity:1;stroke:none" id="path3856-8-7-4-6-02-9" d="m 575,-882.63744 -148,-230.99996 -136,5 7,27 130,200.99996 -140,226 145,0 143,-219 z"/></clipPath><linearGradient id="linearGradient10298-5" x1="1345.687" x2="1792.359" y1="-946.32" y2="-946.32" gradientUnits="userSpaceOnUse" xlink:href="#linearGradient6027-36-2"/><linearGradient id="linearGradient6027-36-2"><stop style="stop-color:#4f4371;stop-opacity:1" id="stop6029-1-2" offset="0"/><stop style="stop-color:#6e5d9d;stop-opacity:1" id="stop6031-6-3" offset="1"/></linearGradient><clipPath id="clipPath3924-0-1-2-11-1" clipPathUnits="userSpaceOnUse"><path style="fill:#fff;stroke:none" id="path3926-1-2-6-1-6" d="m 1354.5147,-1165.4256 144.7711,218.92217 -153.5986,231.28072 446.6719,-5.2965 -28.2481,-35.31004 -293.0732,-434.31345 z"/></clipPath><linearGradient id="linearGradient3624"><stop style="stop-color:#4f4371;stop-opacity:1" id="stop3626" offset="0"/><stop style="stop-color:#6e5d9d;stop-opacity:1" id="stop3628" offset="1"/></linearGradient><clipPath id="clipPath3924-0-1-0-7-0-6" clipPathUnits="userSpaceOnUse"><path style="fill:#fff;stroke:none" id="path3926-1-2-4-1-49-1" d="m 1354.5147,-1165.4256 144.7711,218.92217 -153.5986,231.28072 446.6719,-5.2965 -28.2481,-35.31004 -293.0732,-434.31345 z"/></clipPath><clipPath id="clipPath3854-8-0-29-5-3-6-0" clipPathUnits="userSpaceOnUse"><path style="fill:#fff;fill-opacity:1;stroke:none" id="path3856-8-7-4-2-0-75-7" d="m 575,-882.63744 -148,-230.99996 -136,5 7,27 130,200.99996 -140,226 145,0 143,-219 z"/></clipPath><clipPath id="clipPath3953-0-9-1-5-7-5-03-6" clipPathUnits="userSpaceOnUse"><path style="fill:#4f4371;fill-opacity:1;stroke:none" id="path3955-1-6-8-1-7-6-1-9" d="m 1375.3258,-1364.6093 -150.0676,-234.8117 287.7767,12.3585 1.7656,213.6257 z"/></clipPath><clipPath id="clipPath3953-0-9-1-5-0-21-5-4" clipPathUnits="userSpaceOnUse"><path style="fill:#4f4371;fill-opacity:1;stroke:none" id="path3955-1-6-8-1-2-5-9-7" d="m 1375.3258,-1364.6093 -150.0676,-234.8117 287.7767,12.3585 1.7656,213.6257 z"/></clipPath><clipPath id="clipPath3854-8-0-29-50-32-2-7" clipPathUnits="userSpaceOnUse"><path style="fill:#fff;fill-opacity:1;stroke:none" id="path3856-8-7-4-6-02-3-3" d="m 575,-882.63744 -148,-230.99996 -136,5 7,27 130,200.99996 -140,226 145,0 143,-219 z"/></clipPath><linearGradient id="linearGradient10298-2" x1="1345.687" x2="1792.359" y1="-946.32" y2="-946.32" gradientUnits="userSpaceOnUse" xlink:href="#linearGradient6027-36-6-2"/><linearGradient id="linearGradient6027-36-6-2"><stop style="stop-color:#4f4371;stop-opacity:1" id="stop6029-1-4-5" offset="0"/><stop style="stop-color:#6e5d9d;stop-opacity:1" id="stop6031-6-6-8" offset="1"/></linearGradient><clipPath id="clipPath3924-0-1-2-11-9-2" clipPathUnits="userSpaceOnUse"><path style="fill:#fff;stroke:none" id="path3926-1-2-6-1-4-6" d="m 1354.5147,-1165.4256 144.7711,218.92217 -153.5986,231.28072 446.6719,-5.2965 -28.2481,-35.31004 -293.0732,-434.31345 z"/></clipPath><linearGradient id="linearGradient3655"><stop style="stop-color:#4f4371;stop-opacity:1" id="stop3657" offset="0"/><stop style="stop-color:#6e5d9d;stop-opacity:1" id="stop3659" offset="1"/></linearGradient><clipPath id="clipPath3924-0-1-0-7-0-7-2" clipPathUnits="userSpaceOnUse"><path style="fill:#fff;stroke:none" id="path3926-1-2-4-1-49-22-8" d="m 1354.5147,-1165.4256 144.7711,218.92217 -153.5986,231.28072 446.6719,-5.2965 -28.2481,-35.31004 -293.0732,-434.31345 z"/></clipPath><clipPath id="clipPath3854-8-0-29-5-3-6-32-0" clipPathUnits="userSpaceOnUse"><path style="fill:#fff;fill-opacity:1;stroke:none" id="path3856-8-7-4-2-0-75-81-1" d="m 575,-882.63744 -148,-230.99996 -136,5 7,27 130,200.99996 -140,226 145,0 143,-219 z"/></clipPath><clipPath id="clipPath3953-0-9-1-5-7-5-03-4-6" clipPathUnits="userSpaceOnUse"><path style="fill:#4f4371;fill-opacity:1;stroke:none" id="path3955-1-6-8-1-7-6-1-2-3" d="m 1375.3258,-1364.6093 -150.0676,-234.8117 287.7767,12.3585 1.7656,213.6257 z"/></clipPath><linearGradient id="linearGradient9959" x1="644" x2="746" y1="158" y2="158" gradientTransform="matrix(3.0980394,0,0,21.663043,-1610.3532,-4417.2607)" gradientUnits="userSpaceOnUse" xlink:href="#linearGradient9951"/><linearGradient id="linearGradient9951"><stop style="stop-color:#000;stop-opacity:.39603961" id="stop9953" offset="0"/><stop style="stop-color:#443055;stop-opacity:0" id="stop9955" offset="1"/></linearGradient><linearGradient id="linearGradient9961" x1="1" x2="2001.344" y1="-642.638" y2="-642.638" gradientTransform="translate(4.82812,944.63788)" gradientUnits="userSpaceOnUse" xlink:href="#linearGradient8700-5-0"/><linearGradient id="linearGradient8700-5-0"><stop style="stop-color:#19111f;stop-opacity:1" id="stop8702-4-7" offset="0"/><stop style="stop-color:#2c1e37;stop-opacity:1" id="stop8704-7-7" offset="1"/></linearGradient><linearGradient id="linearGradient3798" x1="1" x2="2001.344" y1="-642.638" y2="-642.638" gradientTransform="matrix(1,0,0,0.20724968,-2.17188,-314.5936)" gradientUnits="userSpaceOnUse" xlink:href="#linearGradient8700-5-0"/><clipPath id="clipPath3953-0-9-1-5-0-21-3-6" clipPathUnits="userSpaceOnUse"><path style="fill:#4f4371;fill-opacity:1;stroke:none" id="path3955-1-6-8-1-2-5-0-0" d="m 1375.3258,-1364.6093 -150.0676,-234.8117 287.7767,12.3585 1.7656,213.6257 z"/></clipPath><clipPath id="clipPath3854-8-0-29-50-32-3-0" clipPathUnits="userSpaceOnUse"><path style="fill:#fff;fill-opacity:1;stroke:none" id="path3856-8-7-4-6-02-9-4" d="m 575,-882.63744 -148,-230.99996 -136,5 7,27 130,200.99996 -140,226 145,0 143,-219 z"/></clipPath><linearGradient id="linearGradient10298-5-1" x1="1345.687" x2="1792.359" y1="-946.32" y2="-946.32" gradientUnits="userSpaceOnUse" xlink:href="#linearGradient6027-36-2-4"/><linearGradient id="linearGradient6027-36-2-4"><stop style="stop-color:#4f4371;stop-opacity:1" id="stop6029-1-2-2" offset="0"/><stop style="stop-color:#6e5d9d;stop-opacity:1" id="stop6031-6-3-8" offset="1"/></linearGradient><clipPath id="clipPath3924-0-1-2-11-1-0" clipPathUnits="userSpaceOnUse"><path style="fill:#fff;stroke:none" id="path3926-1-2-6-1-6-6" d="m 1354.5147,-1165.4256 144.7711,218.92217 -153.5986,231.28072 446.6719,-5.2965 -28.2481,-35.31004 -293.0732,-434.31345 z"/></clipPath><linearGradient id="linearGradient10296-6-4" x1="1345.687" x2="1792.359" y1="-946.32" y2="-946.32" gradientUnits="userSpaceOnUse" xlink:href="#linearGradient6027-36-2-4"/><linearGradient id="linearGradient4186"><stop style="stop-color:#4f4371;stop-opacity:1" id="stop4188" offset="0"/><stop style="stop-color:#6e5d9d;stop-opacity:1" id="stop4190" offset="1"/></linearGradient><clipPath id="clipPath3924-0-1-0-7-0-6-0" clipPathUnits="userSpaceOnUse"><path style="fill:#fff;stroke:none" id="path3926-1-2-4-1-49-1-2" d="m 1354.5147,-1165.4256 144.7711,218.92217 -153.5986,231.28072 446.6719,-5.2965 -28.2481,-35.31004 -293.0732,-434.31345 z"/></clipPath><clipPath id="clipPath3854-8-0-29-5-3-6-0-8" clipPathUnits="userSpaceOnUse"><path style="fill:#fff;fill-opacity:1;stroke:none" id="path3856-8-7-4-2-0-75-7-0" d="m 575,-882.63744 -148,-230.99996 -136,5 7,27 130,200.99996 -140,226 145,0 143,-219 z"/></clipPath><clipPath id="clipPath3953-0-9-1-5-7-5-03-6-5" clipPathUnits="userSpaceOnUse"><path style="fill:#4f4371;fill-opacity:1;stroke:none" id="path3955-1-6-8-1-7-6-1-9-7" d="m 1375.3258,-1364.6093 -150.0676,-234.8117 287.7767,12.3585 1.7656,213.6257 z"/></clipPath><clipPath id="clipPath3953-0-9-1-5-0-21-5-4-5" clipPathUnits="userSpaceOnUse"><path style="fill:#4f4371;fill-opacity:1;stroke:none" id="path3955-1-6-8-1-2-5-9-7-8" d="m 1375.3258,-1364.6093 -150.0676,-234.8117 287.7767,12.3585 1.7656,213.6257 z"/></clipPath><clipPath id="clipPath3854-8-0-29-50-32-2-7-8" clipPathUnits="userSpaceOnUse"><path style="fill:#fff;fill-opacity:1;stroke:none" id="path3856-8-7-4-6-02-3-3-2" d="m 575,-882.63744 -148,-230.99996 -136,5 7,27 130,200.99996 -140,226 145,0 143,-219 z"/></clipPath><linearGradient id="linearGradient10298-2-7" x1="1345.687" x2="1792.359" y1="-946.32" y2="-946.32" gradientUnits="userSpaceOnUse" xlink:href="#linearGradient6027-36-6-2-3"/><linearGradient id="linearGradient6027-36-6-2-3"><stop style="stop-color:#4f4371;stop-opacity:1" id="stop6029-1-4-5-1" offset="0"/><stop style="stop-color:#6e5d9d;stop-opacity:1" id="stop6031-6-6-8-3" offset="1"/></linearGradient><clipPath id="clipPath3924-0-1-2-11-9-2-1" clipPathUnits="userSpaceOnUse"><path style="fill:#fff;stroke:none" id="path3926-1-2-6-1-4-6-3" d="m 1354.5147,-1165.4256 144.7711,218.92217 -153.5986,231.28072 446.6719,-5.2965 -28.2481,-35.31004 -293.0732,-434.31345 z"/></clipPath><linearGradient id="linearGradient10296-0-4" x1="1345.687" x2="1792.359" y1="-946.32" y2="-946.32" gradientUnits="userSpaceOnUse" xlink:href="#linearGradient6027-36-6-2-3"/><linearGradient id="linearGradient4217"><stop style="stop-color:#4f4371;stop-opacity:1" id="stop4219" offset="0"/><stop style="stop-color:#6e5d9d;stop-opacity:1" id="stop4221" offset="1"/></linearGradient><clipPath id="clipPath3924-0-1-0-7-0-7-2-3" clipPathUnits="userSpaceOnUse"><path style="fill:#fff;stroke:none" id="path3926-1-2-4-1-49-22-8-2" d="m 1354.5147,-1165.4256 144.7711,218.92217 -153.5986,231.28072 446.6719,-5.2965 -28.2481,-35.31004 -293.0732,-434.31345 z"/></clipPath><clipPath id="clipPath3854-8-0-29-5-3-6-32-0-8" clipPathUnits="userSpaceOnUse"><path style="fill:#fff;fill-opacity:1;stroke:none" id="path3856-8-7-4-2-0-75-81-1-9" d="m 575,-882.63744 -148,-230.99996 -136,5 7,27 130,200.99996 -140,226 145,0 143,-219 z"/></clipPath><clipPath id="clipPath3953-0-9-1-5-7-5-03-4-6-2" clipPathUnits="userSpaceOnUse"><path style="fill:#4f4371;fill-opacity:1;stroke:none" id="path3955-1-6-8-1-7-6-1-2-3-8" d="m 1375.3258,-1364.6093 -150.0676,-234.8117 287.7767,12.3585 1.7656,213.6257 z"/></clipPath></defs><metadata id="metadata12067"/><g id="layer1" transform="translate(0,147.63782)"><rect id="rect5473" width="630" height="972" x="1372" y="-58.638" style="opacity:1;color:#000;fill:#f7f7f7;fill-opacity:1;fill-rule:nonzero;stroke:none;stroke-width:.79500002000000003;marker:none;visibility:visible;display:inline;overflow:visible;enable-background:accumulate"/><rect id="rect5492" width="1337" height="972" x="-1372" y="-58.638" transform="scale(-1,1)" style="color:#000;fill:#fff;fill-opacity:1;fill-rule:nonzero;stroke:none;stroke-width:.79500002;marker:none;visibility:visible;display:inline;overflow:visible;enable-background:accumulate"/><rect style="opacity:.98000004;color:#000;fill:#f7f7f7;fill-opacity:1;fill-rule:nonzero;stroke:none;stroke-width:.79500002;marker:none;visibility:visible;display:inline;overflow:visible;enable-background:accumulate" id="rect5461" width="1150" height="252" x="190" y="306.362"/><rect style="color:#000;fill:#352f44;fill-opacity:1;fill-rule:nonzero;stroke:none;stroke-width:.79500002;marker:none;visibility:visible;display:inline;overflow:visible;enable-background:accumulate" id="rect13065" width="1999.964" height="88.509" x=".052" y="-147.578"/><rect id="rect4972" width="153.5" height="88.5" x="405" y="-147.638" style="color:#000;fill:#312b3f;fill-opacity:1;fill-rule:nonzero;stroke:none;stroke-width:.79500002;marker:none;visibility:visible;display:inline;overflow:visible;enable-background:accumulate"/><text style="font-size:20.13817596px;font-style:normal;font-variant:normal;font-weight:400;font-stretch:normal;line-height:125%;letter-spacing:0;word-spacing:0;fill:#fff;fill-opacity:1;stroke:none;display:inline;font-family:TeX Gyre Adventor;-inkscape-font-specification:TeX Gyre Adventor" id="text8129" x="603.19" y="-94.795" xml:space="preserve"><tspan id="tspan8131" x="603.19" y="-94.795" style="fill:#fff;fill-opacity:1;stroke:none">Community</tspan></text><text style="font-size:20.13817596px;font-style:normal;font-variant:normal;font-weight:400;font-stretch:normal;line-height:125%;letter-spacing:0;word-spacing:0;fill:#fff;fill-opacity:1;stroke:none;display:inline;font-family:TeX Gyre Adventor;-inkscape-font-specification:TeX Gyre Adventor" id="text8133" x="761.275" y="-94.795" xml:space="preserve"><tspan id="tspan8135" x="761.275" y="-94.795" style="fill:#fff;fill-opacity:1;stroke:none">Documentation</tspan></text><text style="font-size:20.13817596px;font-style:normal;font-variant:normal;font-weight:400;font-stretch:normal;line-height:125%;letter-spacing:0;word-spacing:0;fill:#fff;fill-opacity:1;stroke:none;display:inline;font-family:TeX Gyre Adventor;-inkscape-font-specification:TeX Gyre Adventor" id="text8137" x="951.58" y="-94.795" xml:space="preserve"><tspan id="tspan8139" x="951.58" y="-94.795" style="fill:#fff;fill-opacity:1;stroke:none">News</tspan></text><text style="font-size:27.78089333px;font-style:normal;font-variant:normal;font-weight:500;font-stretch:normal;line-height:125%;letter-spacing:0;word-spacing:0;fill:#fff;fill-opacity:1;stroke:none;display:inline;font-family:Ubuntu;-inkscape-font-specification:Ubuntu Medium" id="text6272-2" x="267.773" y="-96.078" xml:space="preserve"><tspan id="tspan6274-08" x="267.773" y="-96.078">Haskell</tspan></text><g id="text2990-9-70-9" clip-path="url(#clipPath3924-0-1-2-11-5-1)" transform="matrix(0.07664907,0,0,0.0732976,113.62624,-36.98629)" style="font-size:417.63537598px;font-style:normal;font-variant:normal;font-weight:400;font-stretch:normal;line-height:125%;letter-spacing:0;word-spacing:0;fill:#fff;fill-opacity:1;stroke:none;display:inline;font-family:Haskell;-inkscape-font-specification:Haskell"><path style="fill:#fff;fill-opacity:1;stroke:none" id="path4234-0-9-5" d="m 1238.7188,-737.50216 138.6679,-208.81769 -138.6679,-208.81765 104.4088,0 138.668,208.81765 -138.668,208.81769 -104.4088,0 m 0,0 0,0 m 138.6679,0 139.4837,-208.81769 -139.4837,-208.81765 104.4089,0 278.1517,417.63534 -104.4089,0 -86.4635,-130.51105 -87.2793,130.51105 -104.4089,0 m 0,0 0,0 m 336.066,-121.53842 -46.4946,-70.14969 162.3232,0 0,70.14969 -115.8286,0 m 0,0 0,0 m -69.334,-104.40884 -46.4945,-70.14968 231.6571,0 0,70.14968 -185.1626,0 m 0,0 0,0"/></g><g id="text2990-2-1-9-1" clip-path="url(#clipPath3854-8-0-29-50-32-28-3)" transform="matrix(0.07664907,0,0,0.0732976,183.87272,-41.82392)" style="font-size:417.63537598px;font-style:normal;font-variant:normal;font-weight:400;font-stretch:normal;line-height:125%;letter-spacing:0;word-spacing:0;fill:#fff;fill-opacity:1;stroke:none;display:inline;font-family:Haskell;-inkscape-font-specification:Haskell"><path style="fill:#fff;fill-opacity:1;stroke:none" id="path4237-4-0-1" d="m 319.71875,-671.81973 138.668,-208.81768 -138.668,-208.81769 104.40884,0 138.668,208.81769 -138.668,208.81768 -104.40884,0 m 0,0 0,0 m 138.668,0 139.48369,-208.81768 -139.48369,-208.81769 104.40884,0 278.15169,417.63537 -104.40885,0 -86.46357,-130.51105 -87.27927,130.51105 -104.40884,0 m 0,0 0,0 m 336.06596,-121.53841 -46.49456,-70.1497 162.32312,0 0,70.1497 -115.82856,0 m 0,0 0,0 m -69.334,-104.40885 -46.49456,-70.14969 231.65712,0 0,70.14969 -185.16256,0 m 0,0 0,0"/></g><g id="text2990-27-8-3-0" clip-path="url(#clipPath3953-0-9-1-5-0-21-1-9)" transform="matrix(0.07664907,0,0,0.0732976,139.69402,2.45126)" style="font-size:417.63537598px;font-style:normal;font-variant:normal;font-weight:400;font-stretch:normal;line-height:125%;letter-spacing:0;word-spacing:0;fill:#fff;fill-opacity:1;stroke:none;display:inline;font-family:Haskell;-inkscape-font-specification:Haskell"><path style="fill:#fff;fill-opacity:1;stroke:none" id="path4240-0-9-8" d="m 896.43237,-1273.5352 138.66803,-208.8177 -138.66803,-208.8177 104.40883,0 138.668,208.8177 -138.668,208.8177 -104.40883,0 m 0,0 0,0 m 138.66803,0 139.4837,-208.8177 -139.4837,-208.8177 104.4088,0 278.1517,417.6354 -104.4088,0 -86.4636,-130.5111 -87.2793,130.5111 -104.4088,0 m 0,0 0,0 m 336.0659,-121.5385 -46.4945,-70.1497 162.3231,0 0,70.1497 -115.8286,0 m 0,0 0,0 m -69.334,-104.4088 -46.4945,-70.1497 231.6571,0 0,70.1497 -185.1626,0 m 0,0 0,0"/></g><text style="font-size:20.13817596px;font-style:normal;font-variant:normal;font-weight:400;font-stretch:normal;line-height:125%;letter-spacing:0;word-spacing:0;fill:#fff;fill-opacity:1;stroke:none;display:inline;font-family:TeX Gyre Adventor;-inkscape-font-specification:TeX Gyre Adventor" id="text8125" x="428.064" y="-94.795" xml:space="preserve"><tspan id="tspan8127" x="428.064" y="-94.795" style="fill:#fff;fill-opacity:1;stroke:none">Downloads</tspan></text><rect style="color:#000;fill:#465787;fill-opacity:1;fill-rule:nonzero;stroke:none;stroke-width:.79500002;marker:none;visibility:visible;display:inline;overflow:visible;enable-background:accumulate" id="rect4970" width="153.5" height="8.5" x="405" y="-67.638"/><rect id="rect4974-9" width="1998.964" height="136.509" x="1.052" y="915.422" rx="0" ry="0" style="color:#000;fill:#474747;fill-opacity:1;fill-rule:nonzero;stroke:none;stroke-width:.79500002000000003;marker:none;visibility:visible;display:inline;overflow:visible;enable-background:accumulate"/><text style="font-size:20.13817596px;font-style:normal;font-variant:normal;font-weight:400;font-stretch:normal;line-height:125%;letter-spacing:0;word-spacing:0;fill:#d9d9d9;fill-opacity:1;stroke:none;display:inline;font-family:TeX Gyre Adventor;-inkscape-font-specification:TeX Gyre Adventor" id="text8129-2" x="235.922" y="958.001" xml:space="preserve"><tspan id="tspan8131-1" x="235.922" y="958.001" style="fill:#d9d9d9;fill-opacity:1;stroke:none">Copyright © 2014 haskell-lang.org</tspan></text><text id="text5292" x="205.922" y="-13.999" xml:space="preserve" style="font-size:20.13817596px;font-style:normal;font-variant:normal;font-weight:400;font-stretch:normal;line-height:125%;letter-spacing:0;word-spacing:0;fill:#08c;fill-opacity:1;stroke:none;display:inline;font-family:TeX Gyre Adventor;-inkscape-font-specification:TeX Gyre Adventor"><tspan style="fill:#08c;fill-opacity:1;stroke:none" id="tspan5294" x="205.922" y="-13.999">Downloads <tspan style="fill:#858585;fill-opacity:1" id="tspan5296">›</tspan> Haskell Platform</tspan></text><flowRoot id="flowRoot5316" transform="translate(0,-137.63782)" xml:space="preserve" style="font-size:40px;font-style:normal;font-variant:normal;font-weight:700;font-stretch:normal;line-height:125%;letter-spacing:0;word-spacing:0;fill:#6e618d;fill-opacity:1;stroke:none;font-family:Sawasdee;-inkscape-font-specification:Sawasdee Bold"><flowRegion id="flowRegion5318"><rect id="rect5320" width="458" height="67" x="206" y="169" style="font-weight:700;-inkscape-font-specification:Sawasdee Bold;fill:#6e618d;fill-opacity:1"/></flowRegion><flowPara id="flowPara5322">Haskell Platform</flowPara></flowRoot><flowRoot id="flowRoot5324" transform="translate(1,-142.63782)" xml:space="preserve" style="font-size:40px;font-style:normal;font-variant:normal;font-weight:400;font-stretch:normal;line-height:170.00000477%;letter-spacing:0;word-spacing:0;fill:#000;fill-opacity:1;stroke:none;font-family:Waree;-inkscape-font-specification:Waree"><flowRegion id="flowRegion5326"><rect id="rect5328" width="1124" height="668" x="206" y="237" style="font-style:normal;font-variant:normal;font-weight:400;font-stretch:normal;line-height:170.00000477%;font-family:Waree;-inkscape-font-specification:Waree"/></flowRegion><flowPara id="flowPara5330" style="font-size:22px;font-style:normal;font-variant:normal;font-weight:400;font-stretch:normal;line-height:170.00000477%;font-family:Waree;-inkscape-font-specification:Waree">The Haskell Platform is a comprehensive, robust development environment for programming in Haskell. For new users the platform makes it trivial to get up and running with a full Haskell development environment. For experienced developers, the platform provides a comprehensive, standard base for commercial and open source Haskell development that maximises interoperability and stability of your code.</flowPara></flowRoot><text id="text5334" x="1683.922" y="958.001" xml:space="preserve" style="font-size:20.13817596px;font-style:normal;font-variant:normal;font-weight:400;font-stretch:normal;line-height:125%;letter-spacing:0;word-spacing:0;fill:#d9d9d9;fill-opacity:1;stroke:none;display:inline;font-family:TeX Gyre Adventor;-inkscape-font-specification:TeX Gyre Adventor"><tspan style="fill:#d9d9d9;fill-opacity:1;stroke:none" id="tspan5336" x="1683.922" y="958.001">Back to top</tspan></text><flowRoot id="flowRoot8206" transform="matrix(0.76261104,0,0,0.76261104,-206.28457,-354.42723)" xml:space="preserve" style="font-size:40px;font-style:normal;font-variant:normal;font-weight:400;font-stretch:normal;line-height:125%;letter-spacing:0;word-spacing:0;fill:#000;fill-opacity:1;stroke:none;display:inline;font-family:Sawasdee;-inkscape-font-specification:Sawasdee"><flowRegion id="flowRegion8208"><rect id="rect8210" width="1128" height="423" x="541" y="891"/></flowRegion><flowPara id="flowPara8212" style="font-size:32px;font-style:normal;font-variant:normal;font-weight:400;font-stretch:normal;font-family:Ubuntu Mono;-inkscape-font-specification:Ubuntu Mono"><flowSpan style="fill:#2e659c;fill-opacity:1" id="flowSpan8216">primes</flowSpan>= sieve<flowSpan style="fill:#7b7b7b;fill-opacity:1" id="flowSpan10867">[</flowSpan><flowSpan style="fill:#397460;fill-opacity:1" id="flowSpan8218">2</flowSpan>..<flowSpan style="fill:#7b7b7b;fill-opacity:1" id="flowSpan10869">]</flowSpan></flowPara><flowPara id="flowPara8214" style="font-size:32px;font-style:normal;font-variant:normal;font-weight:400;font-stretch:normal;font-family:Ubuntu Mono;-inkscape-font-specification:Ubuntu Mono"><flowSpan style="fill:#4f4371;fill-opacity:1" id="flowSpan8226">where</flowSpan>sieve<flowSpan style="fill:#7b7b7b;fill-opacity:1" id="flowSpan10871">(</flowSpan>p<flowSpan style="fill:#4f4371;fill-opacity:1" id="flowSpan10885">:</flowSpan>xs<flowSpan style="fill:#7b7b7b;fill-opacity:1" id="flowSpan10873">)</flowSpan>= p<flowSpan style="fill:#4f4371;fill-opacity:1" id="flowSpan8222">:</flowSpan>sieve<flowSpan style="fill:#7b7b7b;fill-opacity:1" id="flowSpan10875">[</flowSpan>x<flowSpan style="fill:#7b7b7b;fill-opacity:1" id="flowSpan10879">|</flowSpan>x<flowSpan style="fill:#7b7b7b;fill-opacity:1" id="flowSpan10883">&lt;-</flowSpan>xs<flowSpan style="fill:#7b7b7b;fill-opacity:1" id="flowSpan10881">,</flowSpan>x<flowSpan style="fill:#4f4371;fill-opacity:1" id="flowSpan8224">`mod`</flowSpan>p /=<flowSpan style="fill:#397460;fill-opacity:1" id="flowSpan8220">0</flowSpan><flowSpan style="fill:#7b7b7b;fill-opacity:1" id="flowSpan10877">]</flowSpan></flowPara><flowPara style="font-size:32px;font-style:normal;font-variant:normal;font-weight:400;font-stretch:normal;font-family:Ubuntu Mono;-inkscape-font-specification:Ubuntu Mono" id="flowPara10851"/><flowPara style="font-size:32px;font-style:normal;font-variant:normal;font-weight:400;font-stretch:normal;font-family:Ubuntu Mono;-inkscape-font-specification:Ubuntu Mono" id="flowPara10853"><flowSpan style="fill:#2e659c;fill-opacity:1" id="flowSpan10861">water</flowSpan>h<flowSpan style="fill:#7b7b7b;fill-opacity:1" id="flowSpan10887">=</flowSpan>sum<flowSpan style="fill:#4f4371;fill-opacity:1" id="flowSpan10863">$</flowSpan></flowPara><flowPara style="font-size:32px;font-style:normal;font-variant:normal;font-weight:400;font-stretch:normal;font-family:Ubuntu Mono;-inkscape-font-specification:Ubuntu Mono" id="flowPara10855">zipWith<flowSpan style="fill:#7b7b7b;fill-opacity:1" id="flowSpan10889">(</flowSpan><flowSpan style="fill:#4f4371;fill-opacity:1" id="flowSpan10865">-</flowSpan><flowSpan style="fill:#7b7b7b;fill-opacity:1" id="flowSpan10891">)</flowSpan></flowPara><flowPara style="font-size:32px;font-style:normal;font-variant:normal;font-weight:400;font-stretch:normal;font-family:Ubuntu Mono;-inkscape-font-specification:Ubuntu Mono" id="flowPara10857"><flowSpan style="fill:#7b7b7b;fill-opacity:1" id="flowSpan10901">(</flowSpan>zipWith min<flowSpan style="fill:#7b7b7b;fill-opacity:1" id="flowSpan10899">(</flowSpan>scanl1 max h<flowSpan style="fill:#7b7b7b;fill-opacity:1" id="flowSpan10897">) (</flowSpan>scanr1 max h<flowSpan style="fill:#7b7b7b;fill-opacity:1" id="flowSpan10893">))</flowSpan></flowPara><flowPara style="font-size:32px;font-style:normal;font-variant:normal;font-weight:400;font-stretch:normal;font-family:Ubuntu Mono;-inkscape-font-specification:Ubuntu Mono" id="flowPara10859">h</flowPara></flowRoot><flowRoot style="font-size:40px;font-style:normal;font-variant:normal;font-weight:400;font-stretch:normal;line-height:170.00000477%;letter-spacing:0;word-spacing:0;fill:#000;fill-opacity:1;stroke:none;font-family:Waree;-inkscape-font-specification:Waree" id="flowRoot5463" transform="translate(1,341.36218)" xml:space="preserve"><flowRegion id="flowRegion5465"><rect style="font-style:normal;font-variant:normal;font-weight:400;font-stretch:normal;line-height:170.00000477%;font-family:Waree;-inkscape-font-specification:Waree" id="rect5467" width="1124" height="668" x="206" y="237"/></flowRegion><flowPara style="font-size:22px;font-style:normal;font-variant:normal;font-weight:400;font-stretch:normal;line-height:170.00000477%;font-family:Waree;-inkscape-font-specification:Waree" id="flowPara5469">Lorem ipsum dolor sit amet, consectetur adipiscing elit. Suspendisse vitae aliquet lorem. Praesent sed egestas risus. Cras a neque eget dui pharetra feugiat sed vel erat. Vivamus magna sapien, congue quis tellus eu, imperdiet sagittis dolor. Praesent dolor magna, suscipit in posuere nec, faucibus eu velit.</flowPara></flowRoot></g></svg>